<svg xmlns="http://www.w3.org/2000/svg" xmlns:xlink="http://www.w3.org/1999/xlink" version="1.1" x="0px" y="0px" viewBox="0 0 100 125" enable-background="new 0 0 100 100" xml:space="preserve"><path d="M32.377,46.562h-5.504v22.802c0,3.074,2.492,5.567,5.567,5.567h2.021V48.646C34.461,47.497,33.526,46.562,32.377,46.562z   M43.327,35.895H32.44c-3.075,0-5.567,2.492-5.567,5.566v3.601h5.504c1.977,0,3.584,1.608,3.584,3.585v26.284h7.366  c3.075,0,5.567-2.493,5.567-5.567V41.461C48.895,38.387,46.402,35.895,43.327,35.895z M52.566,37.335  c1.722-3.466,1.755-3.499,5.221-5.221c-3.466-1.723-3.499-1.755-5.221-5.221c-1.722,3.466-1.755,3.499-5.221,5.221  C50.812,33.836,50.844,33.869,52.566,37.335z M59.611,37.742l-2.43-2.423l-1.412,1.416l2.43,2.423L59.611,37.742z M49.362,27.493  l-2.43-2.423l-1.412,1.416l2.43,2.423L49.362,27.493z M59.61,26.482l-1.415-1.413l-2.424,2.428l1.415,1.413L59.61,26.482z   M40.794,33.522c0-1.221-0.99-2.211-2.211-2.211H34.94c-1.222,0-2.212,0.99-2.212,2.211v0.872h8.065V33.522z M50.395,66.363h5.066  V46.813h-5.066V66.363z M56.961,68.548l11.752,1.441V43.187l-11.752,1.441V68.548z M70.213,48.045v17.084  c1.829-2.445,2.914-5.373,2.914-8.542C73.127,53.419,72.042,50.491,70.213,48.045z"/><text x="0" y="115" fill="#000000" font-size="5px" font-weight="bold" font-family="'Helvetica Neue', Helvetica, Arial-Unicode, Arial, Sans-serif">Created by Sergey Demushkin</text><text x="0" y="120" fill="#000000" font-size="5px" font-weight="bold" font-family="'Helvetica Neue', Helvetica, Arial-Unicode, Arial, Sans-serif">from the Noun Project</text></svg>