<svg xmlns="http://www.w3.org/2000/svg" xmlns:xlink="http://www.w3.org/1999/xlink" version="1.1" x="0px" y="0px" viewBox="0 0 100 125" enable-background="new 0 0 100 100" xml:space="preserve"><path d="M66,27c-5.5,0-10,4.5-10,10s4.5,10,10,10s10-4.5,10-10S71.5,27,66,27z M70,38h-3v3c0,0.6-0.4,1-1,1s-1-0.4-1-1v-3h-3  c-0.6,0-1-0.4-1-1s0.4-1,1-1h3v-3c0-0.6,0.4-1,1-1s1,0.4,1,1v3h3c0.6,0,1,0.4,1,1S70.6,38,70,38z M60.7,47.7L54,54.4V68  c0,0.4-0.2,0.7-0.6,0.9l-6,3c-0.252,0.251-0.597,0-0.9,0C46.2,71.7,46,71.3,46,71V54.4L29.3,37.7c-0.3-0.3-0.4-0.7-0.2-1.1  c0.2-0.4,0.5-0.6,0.9-0.6h24.1c0,0.3-0.1,0.7-0.1,1C54,41.7,56.7,45.8,60.7,47.7z"/><text x="0" y="115" fill="#000000" font-size="5px" font-weight="bold" font-family="'Helvetica Neue', Helvetica, Arial-Unicode, Arial, Sans-serif">Created by Setyo Ari Wibowo</text><text x="0" y="120" fill="#000000" font-size="5px" font-weight="bold" font-family="'Helvetica Neue', Helvetica, Arial-Unicode, Arial, Sans-serif">from the Noun Project</text></svg>