<svg xmlns="http://www.w3.org/2000/svg" xmlns:xlink="http://www.w3.org/1999/xlink" version="1.1" x="0px" y="0px" viewBox="0 0 100 125" enable-background="new 0 0 100 100" xml:space="preserve"><path d="M71,37c0,0.6-0.4,1-1,1h-3v3c0,0.6-0.4,1-1,1s-1-0.4-1-1v-3h-3c-0.6,0-1-0.4-1-1s0.4-1,1-1h3v-3c0-0.6,0.4-1,1-1s1,0.4,1,1  v3h3C70.6,36,71,36.4,71,37z M76,37c0,5.5-4.5,10-10,10c-1.4,0-2.6-0.3-3.8-0.8L54,54.4V68c0,0.4-0.2,0.7-0.6,0.9l-6,3  c-0.252,0.251-0.597,0-0.9,0C46.2,71.7,46,71.3,46,71V54.4L29.3,37.7c-0.3-0.3-0.4-0.7-0.2-1.1c0.2-0.4,0.5-0.6,0.9-0.6h26.1  c0.5-5,4.801-9,9.9-9C71.5,27,76,31.5,76,37z M60.3,45.2C57.9,43.6,56.3,41,56,38H32.4l15.3,15.3c0.2,0.2,0.3,0.4,0.3,0.7v15.4l4-2  V54c0-0.3,0.1-0.5,0.3-0.7L60.3,45.2z M74,37c0-4.4-3.6-8-8-8s-8,3.6-8,8s3.6,8,8,8S74,41.4,74,37z"/><text x="0" y="115" fill="#000000" font-size="5px" font-weight="bold" font-family="'Helvetica Neue', Helvetica, Arial-Unicode, Arial, Sans-serif">Created by Setyo Ari Wibowo</text><text x="0" y="120" fill="#000000" font-size="5px" font-weight="bold" font-family="'Helvetica Neue', Helvetica, Arial-Unicode, Arial, Sans-serif">from the Noun Project</text></svg>