<?xml version="1.0" standalone="no"?>
<!DOCTYPE svg PUBLIC "-//W3C//DTD SVG 20010904//EN"
 "http://www.w3.org/TR/2001/REC-SVG-20010904/DTD/svg10.dtd">
<svg version="1.0" xmlns="http://www.w3.org/2000/svg"
 width="673.000000pt" height="758.000000pt" viewBox="0 0 673.000000 758.000000"
 preserveAspectRatio="xMidYMid meet">
<metadata>
Created by potrace 1.14, written by Peter Selinger 2001-2017
</metadata>
<g transform="translate(0.000000,758.000000) scale(0.100000,-0.100000)"
fill="#000000" stroke="none">
<path d="M2787 7343 c-4 -3 -7 -307 -7 -675 l0 -668 -400 0 c-230 0 -400 -4
-400 -9 0 -5 91 -112 203 -238 637 -720 963 -1089 1050 -1189 55 -62 104 -111
111 -108 7 3 52 50 101 107 90 102 255 289 736 832 141 160 316 357 388 439
72 81 131 152 131 157 0 5 -171 9 -400 9 l-400 0 -2 673 -3 672 -551 3 c-303
1 -554 -1 -557 -5z"/>
<path d="M3099 3965 c-349 -57 -650 -204 -894 -437 -200 -191 -325 -379 -420
-633 -128 -344 -135 -735 -19 -1090 160 -486 559 -887 1044 -1049 201 -67 289
-80 530 -80 241 0 329 13 530 80 356 119 684 379 880 699 363 592 322 1343
-105 1890 -237 304 -589 522 -980 605 -130 28 -437 36 -566 15z"/>
</g>
</svg>
