<?xml version="1.0" standalone="no"?>
<!DOCTYPE svg PUBLIC "-//W3C//DTD SVG 20010904//EN"
 "http://www.w3.org/TR/2001/REC-SVG-20010904/DTD/svg10.dtd">
<svg version="1.0" xmlns="http://www.w3.org/2000/svg"
 width="1104.000000pt" height="760.000000pt" viewBox="0 0 1104.000000 760.000000"
 preserveAspectRatio="xMidYMid meet">
<metadata>
Created by potrace 1.14, written by Peter Selinger 2001-2017
</metadata>
<g transform="translate(0.000000,760.000000) scale(0.100000,-0.100000)"
fill="#000000" stroke="none">
<path d="M1285 7584 c-38 -8 -118 -35 -177 -58 -461 -186 -745 -674 -677
-1162 62 -444 391 -817 816 -923 110 -27 162 -33 288 -32 561 2 1037 439 1083
994 29 351 -84 655 -335 898 -133 130 -270 208 -473 271 -89 28 -419 35 -525
12z"/>
<path d="M3970 7593 c-221 -42 -428 -152 -585 -308 -509 -510 -401 -1354 222
-1728 113 -68 270 -123 408 -142 84 -12 266 -7 351 10 338 65 619 275 776 582
137 265 159 573 61 863 -98 293 -360 563 -647 667 -140 51 -166 55 -366 58
-107 2 -206 1 -220 -2z"/>
<path d="M6610 7593 c-78 -15 -156 -39 -239 -74 -253 -108 -459 -311 -574
-565 -275 -611 68 -1331 718 -1510 140 -39 348 -47 491 -19 425 81 762 400
868 820 52 205 33 467 -48 674 -107 271 -360 520 -630 618 -140 51 -166 55
-366 58 -107 2 -206 1 -220 -2z"/>
<path d="M1355 4956 c-235 -39 -443 -145 -610 -311 -222 -223 -341 -532 -321
-840 17 -282 133 -534 334 -727 191 -184 414 -285 669 -306 461 -38 881 199
1083 611 90 185 125 371 108 580 -31 381 -259 716 -605 891 -189 95 -453 136
-658 102z"/>
<path d="M3995 4956 c-235 -39 -443 -145 -610 -311 -440 -441 -428 -1151 26
-1580 230 -218 529 -320 856 -293 518 43 948 473 991 994 39 460 -195 881
-605 1088 -189 95 -453 136 -658 102z"/>
<path d="M6635 4956 c-231 -37 -443 -144 -609 -311 -96 -96 -159 -186 -221
-317 -201 -426 -102 -935 246 -1263 230 -218 529 -320 856 -293 413 34 786
321 932 718 106 289 79 643 -70 909 -226 404 -681 627 -1134 557z"/>
<path d="M1355 2316 c-374 -59 -696 -309 -844 -657 -22 -52 -46 -121 -55 -154
-94 -370 9 -765 268 -1034 197 -204 424 -314 698 -339 529 -49 1017 288 1163
801 47 166 49 395 5 568 -92 360 -377 662 -728 773 -169 53 -342 67 -507 42z"/>
<path d="M3995 2316 c-419 -69 -769 -374 -889 -776 -23 -77 -46 -232 -46 -315
0 -148 49 -353 115 -486 207 -410 629 -646 1086 -608 467 40 856 374 973 835
53 206 31 476 -53 684 -114 279 -370 520 -656 618 -157 53 -376 73 -530 48z"/>
<path d="M9304 2314 c-240 -40 -450 -150 -616 -322 -184 -191 -285 -414 -306
-669 -38 -467 206 -891 629 -1092 320 -153 729 -134 1023 45 429 263 631 749
510 1229 -44 174 -155 365 -289 500 -251 250 -609 367 -951 309z"/>
</g>
</svg>
