<svg xmlns="http://www.w3.org/2000/svg" data-name="Layer 1" viewBox="0 0 100 125" x="0px" y="0px"><title>Essential Icons</title><path d="M80,28H40a3,3,0,0,1,0-6H80a3,3,0,0,1,0,6Z"/><path d="M80,53H40a3,3,0,0,1,0-6H80a3,3,0,0,1,0,6Z"/><path d="M80,78H40a3,3,0,0,1,0-6H80a3,3,0,0,1,0,6Z"/><path d="M25,28H17a3,3,0,0,1,0-6h8a3,3,0,0,1,0,6Z"/><path d="M25,53H17a3,3,0,0,1,0-6h8a3,3,0,0,1,0,6Z"/><path d="M25,78H17a3,3,0,0,1,0-6h8a3,3,0,0,1,0,6Z"/><text x="0" y="115" fill="#000000" font-size="5px" font-weight="bold" font-family="'Helvetica Neue', Helvetica, Arial-Unicode, Arial, Sans-serif">Created by Blair Adams</text><text x="0" y="120" fill="#000000" font-size="5px" font-weight="bold" font-family="'Helvetica Neue', Helvetica, Arial-Unicode, Arial, Sans-serif">from the Noun Project</text></svg>