<svg xmlns:dc="http://purl.org/dc/elements/1.1/" xmlns:cc="http://creativecommons.org/ns#" xmlns:rdf="http://www.w3.org/1999/02/22-rdf-syntax-ns#" xmlns:svg="http://www.w3.org/2000/svg" xmlns="http://www.w3.org/2000/svg" xmlns:sodipodi="http://sodipodi.sourceforge.net/DTD/sodipodi-0.dtd" xmlns:inkscape="http://www.inkscape.org/namespaces/inkscape" viewBox="0 0 402.03405 468.6208875" version="1.1" x="0px" y="0px"><g transform="translate(-213.29,-362.23819)"><path style="" d="m 480.773,362.2871 c -3.783,-0.2187 -7.688,0.2917 -11.49,1.6189 l -114.322,40.6153 c -15.204,5.3855 -23.185,22.015 -17.801,37.2182 l 40.536,114.4031 c 1.075,2.9824 2.708,5.5681 4.531,7.9292 -5.054,-4.1426 -11.447,-6.7154 -18.448,-6.7154 l -121.281,0 c -16.115,0 -29.208,13.0932 -29.208,29.208 l 0,121.3625 c 0,16.1143 13.052,29.208 29.208,29.208 l 121.281,0 c 16.114,0 29.208,-13.0521 29.208,-29.208 l 0,-121.3625 c 0,-6.6284 -2.341,-12.6689 -6.068,-17.557 7.623,6.0894 18.094,8.3754 27.995,4.8542 l 35.923,-12.7834 c -9.03,4.9708 -15.21,14.4667 -15.21,25.4862 l 0,121.3625 c 0,16.1143 13.051,29.208 29.207,29.208 l 121.363,0 c 16.115,0 29.127,-13.0521 29.127,-29.208 l 0,-121.3625 c 0.03,-16.1148 -13.012,-29.208 -29.127,-29.208 l -121.283,0 c -1.698,0 -3.358,0.2916 -4.934,0.5688 l 69.338,-24.5963 c 15.203,-5.385 23.185,-22.0562 17.8,-37.2179 L 506.583,381.7065 c -4.039,-11.4024 -14.46,-18.7405 -25.81,-19.418 z" fill="#000000"/></g><text x="0" y="389.89671" fill="#000000" font-size="5px" font-weight="bold" font-family="'Helvetica Neue', Helvetica, Arial-Unicode, Arial, Sans-serif">Created by Hopkins</text><text x="0" y="394.89671" fill="#000000" font-size="5px" font-weight="bold" font-family="'Helvetica Neue', Helvetica, Arial-Unicode, Arial, Sans-serif">from the Noun Project</text></svg>