<svg xmlns="http://www.w3.org/2000/svg" xmlns:xlink="http://www.w3.org/1999/xlink" version="1.1" x="0px" y="0px" viewBox="0 0 100 125" style="enable-background:new 0 0 100 100;" xml:space="preserve"><pattern width="72" height="72" patternUnits="userSpaceOnUse" id="a" viewBox="72.25 -72 72 72" style="" overflow="visible"><g><rect x="72.25" y="-72" style="" width="72" height="72" fill="none"/><g><line style="" x1="144" y1="-3.601" x2="216.5" y2="-3.601" fill="none" stroke="#1A171B" stroke-width="0.72"/><line style="" x1="144" y1="-18" x2="216.5" y2="-18" fill="none" stroke="#1A171B" stroke-width="0.72"/><line style="" x1="144" y1="-32.399" x2="216.5" y2="-32.399" fill="none" stroke="#1A171B" stroke-width="0.72"/><line style="" x1="144" y1="-46.8" x2="216.5" y2="-46.8" fill="none" stroke="#1A171B" stroke-width="0.72"/><line style="" x1="144" y1="-61.2" x2="216.5" y2="-61.2" fill="none" stroke="#1A171B" stroke-width="0.72"/><line style="" x1="144" y1="-10.8" x2="216.5" y2="-10.8" fill="none" stroke="#1A171B" stroke-width="0.72"/><line style="" x1="144" y1="-25.2" x2="216.5" y2="-25.2" fill="none" stroke="#1A171B" stroke-width="0.72"/><line style="" x1="144" y1="-39.6" x2="216.5" y2="-39.6" fill="none" stroke="#1A171B" stroke-width="0.72"/><line style="" x1="144" y1="-54" x2="216.5" y2="-54" fill="none" stroke="#1A171B" stroke-width="0.72"/><line style="" x1="144" y1="-68.399" x2="216.5" y2="-68.399" fill="none" stroke="#1A171B" stroke-width="0.72"/></g><g><line style="" x1="72" y1="-3.601" x2="144.5" y2="-3.601" fill="none" stroke="#1A171B" stroke-width="0.72"/><line style="" x1="72" y1="-18" x2="144.5" y2="-18" fill="none" stroke="#1A171B" stroke-width="0.72"/><line style="" x1="72" y1="-32.399" x2="144.5" y2="-32.399" fill="none" stroke="#1A171B" stroke-width="0.72"/><line style="" x1="72" y1="-46.8" x2="144.5" y2="-46.8" fill="none" stroke="#1A171B" stroke-width="0.72"/><line style="" x1="72" y1="-61.2" x2="144.5" y2="-61.2" fill="none" stroke="#1A171B" stroke-width="0.72"/><line style="" x1="72" y1="-10.8" x2="144.5" y2="-10.8" fill="none" stroke="#1A171B" stroke-width="0.72"/><line style="" x1="72" y1="-25.2" x2="144.5" y2="-25.2" fill="none" stroke="#1A171B" stroke-width="0.72"/><line style="" x1="72" y1="-39.6" x2="144.5" y2="-39.6" fill="none" stroke="#1A171B" stroke-width="0.72"/><line style="" x1="72" y1="-54" x2="144.5" y2="-54" fill="none" stroke="#1A171B" stroke-width="0.72"/><line style="" x1="72" y1="-68.399" x2="144.5" y2="-68.399" fill="none" stroke="#1A171B" stroke-width="0.72"/></g><g><line style="" x1="0" y1="-3.601" x2="72.5" y2="-3.601" fill="none" stroke="#1A171B" stroke-width="0.72"/><line style="" x1="0" y1="-18" x2="72.5" y2="-18" fill="none" stroke="#1A171B" stroke-width="0.72"/><line style="" x1="0" y1="-32.399" x2="72.5" y2="-32.399" fill="none" stroke="#1A171B" stroke-width="0.72"/><line style="" x1="0" y1="-46.8" x2="72.5" y2="-46.8" fill="none" stroke="#1A171B" stroke-width="0.72"/><line style="" x1="0" y1="-61.2" x2="72.5" y2="-61.2" fill="none" stroke="#1A171B" stroke-width="0.72"/><line style="" x1="0" y1="-10.8" x2="72.5" y2="-10.8" fill="none" stroke="#1A171B" stroke-width="0.72"/><line style="" x1="0" y1="-25.2" x2="72.5" y2="-25.2" fill="none" stroke="#1A171B" stroke-width="0.72"/><line style="" x1="0" y1="-39.6" x2="72.5" y2="-39.6" fill="none" stroke="#1A171B" stroke-width="0.72"/><line style="" x1="0" y1="-54" x2="72.5" y2="-54" fill="none" stroke="#1A171B" stroke-width="0.72"/><line style="" x1="0" y1="-68.399" x2="72.5" y2="-68.399" fill="none" stroke="#1A171B" stroke-width="0.72"/></g></g></pattern><g><path d="M77.456,52.586c-0.283,0-0.569-0.072-0.832-0.223l-1.441-0.832c-0.797-0.46-1.07-1.48-0.608-2.275   c0.462-0.798,1.476-1.067,2.273-0.61l1.441,0.832c0.797,0.46,1.07,1.48,0.608,2.275C78.588,52.289,78.029,52.586,77.456,52.586z"/><path d="M86.47,57.789c-0.283,0-0.569-0.072-0.832-0.221l-3.005-1.733c-0.797-0.462-1.07-1.48-0.611-2.276   c0.458-0.797,1.476-1.071,2.276-0.61l3.005,1.732c0.797,0.462,1.07,1.48,0.611,2.276C87.605,57.49,87.046,57.789,86.47,57.789z"/><path d="M92.48,62.924c-0.572,0-1.132-0.299-1.441-0.832c-0.309-0.533-0.289-1.167-0.003-1.665   c-0.286-0.498-0.306-1.132,0.003-1.665c0.462-0.797,1.48-1.067,2.273-0.608l1.441,0.832c0.514,0.296,0.832,0.845,0.832,1.441   c0,0.595-0.319,1.145-0.832,1.441l-1.441,0.832C93.052,62.852,92.763,62.924,92.48,62.924z"/><path d="M57.188,83.296c-0.576,0-1.135-0.299-1.444-0.832c-0.458-0.797-0.185-1.814,0.611-2.276l2.943-1.697   c0.8-0.455,1.814-0.185,2.276,0.611c0.459,0.797,0.185,1.814-0.611,2.276l-2.943,1.697C57.757,83.224,57.471,83.296,57.188,83.296z    M66.013,78.204c-0.572,0-1.135-0.299-1.441-0.832c-0.462-0.797-0.189-1.814,0.608-2.273l2.94-1.697   c0.797-0.465,1.818-0.189,2.273,0.608c0.462,0.797,0.189,1.814-0.608,2.273l-2.94,1.697C66.582,78.132,66.296,78.204,66.013,78.204   z M74.835,73.108c-0.572,0-1.135-0.299-1.441-0.832c-0.462-0.797-0.189-1.814,0.608-2.273l2.94-1.697   c0.797-0.465,1.814-0.189,2.273,0.608c0.462,0.797,0.189,1.814-0.608,2.273l-2.94,1.697C75.405,73.037,75.118,73.108,74.835,73.108   z M83.658,68.016c-0.572,0-1.135-0.299-1.441-0.832c-0.462-0.797-0.189-1.814,0.608-2.273l2.94-1.697   c0.79-0.465,1.814-0.189,2.273,0.608c0.462,0.797,0.189,1.814-0.608,2.273l-2.94,1.697C84.227,67.944,83.94,68.016,83.658,68.016z"/><path d="M49.865,87.523c-0.288,0-0.576-0.075-0.832-0.224l-1.442-0.832c-0.797-0.459-1.07-1.476-0.61-2.273   c0.46-0.797,1.478-1.073,2.275-0.608l0.61,0.351l0.61-0.351c0.792-0.465,1.811-0.189,2.275,0.608   c0.46,0.797,0.187,1.814-0.61,2.273l-1.442,0.832C50.441,87.448,50.153,87.523,49.865,87.523z"/><path d="M42.501,83.273c-0.283,0-0.569-0.072-0.831-0.224l-2.961-1.71c-0.797-0.459-1.07-1.476-0.61-2.273   c0.46-0.797,1.478-1.076,2.275-0.608l2.961,1.71c0.797,0.458,1.07,1.476,0.61,2.273C43.636,82.974,43.077,83.273,42.501,83.273z    M33.621,78.145c-0.283,0-0.569-0.072-0.831-0.224l-2.961-1.71c-0.797-0.458-1.07-1.476-0.61-2.273   c0.46-0.797,1.478-1.073,2.275-0.608l2.961,1.71c0.797,0.459,1.07,1.476,0.61,2.273C34.756,77.846,34.196,78.145,33.621,78.145z    M24.74,73.017c-0.283,0-0.569-0.072-0.831-0.224l-2.961-1.71c-0.797-0.459-1.07-1.476-0.61-2.273   c0.46-0.797,1.478-1.073,2.275-0.608l2.961,1.71c0.797,0.459,1.07,1.476,0.61,2.273C25.875,72.718,25.316,73.017,24.74,73.017z    M15.858,67.886c-0.283,0-0.567-0.072-0.831-0.224l-2.959-1.707c-0.797-0.459-1.07-1.476-0.61-2.273s1.478-1.076,2.275-0.608   l2.959,1.707c0.797,0.459,1.07,1.476,0.61,2.273C16.993,67.587,16.434,67.886,15.858,67.886z"/><path d="M6.977,62.758c-0.283,0-0.569-0.072-0.831-0.224l-1.442-0.832c-0.515-0.296-0.832-0.845-0.832-1.441   c0-0.595,0.317-1.145,0.832-1.441l1.442-0.832c0.79-0.468,1.813-0.189,2.275,0.608c0.307,0.533,0.286,1.167,0,1.665   c0.286,0.498,0.307,1.132,0,1.665C8.112,62.459,7.553,62.758,6.977,62.758z"/><path d="M12.993,57.623c-0.576,0-1.136-0.299-1.444-0.832c-0.46-0.797-0.185-1.814,0.611-2.276l3.006-1.732   c0.797-0.462,1.816-0.184,2.273,0.611c0.46,0.795,0.185,1.813-0.611,2.275l-3.006,1.733C13.561,57.552,13.274,57.623,12.993,57.623   z"/><path d="M22.014,52.42c-0.576,0-1.135-0.299-1.444-0.832c-0.46-0.797-0.187-1.814,0.61-2.275l1.442-0.832   c0.793-0.46,1.813-0.185,2.275,0.61c0.46,0.797,0.187,1.814-0.61,2.275l-1.442,0.832C22.583,52.349,22.297,52.42,22.014,52.42z"/></g><path d="M49.865,67.115L2.207,39.595l47.385-27.354l47.658,27.52L49.865,67.115z M8.867,39.595l40.998,23.676l40.725-23.51  L49.592,16.085L8.867,39.595z"/><g><pattern id="f" xlink:href="#a" patternTransform="matrix(-0.2706 0.1562 0.1562 0.2706 -9111.8926 -4571.291)"/><line style="" x1="56.383" y1="17.434" x2="12.328" y2="42.866" fill="url(#f)"/><rect x="8.921" y="29.734" transform="matrix(0.8663 -0.4995 0.4995 0.8663 -10.4674 21.1908)" width="50.867" height="0.833"/></g><g><pattern id="e" xlink:href="#a" patternTransform="matrix(-0.2706 0.1562 0.1562 0.2706 -9111.8926 -4571.291)"/><line style="" x1="63.667" y1="21.994" x2="19.612" y2="47.426" fill="url(#e)"/><rect x="16.205" y="34.293" transform="matrix(0.8663 -0.4995 0.4995 0.8663 -11.7708 25.4386)" width="50.867" height="0.833"/></g><g><pattern id="d" xlink:href="#a" patternTransform="matrix(-0.2706 0.1562 0.1562 0.2706 -9111.8926 -4571.291)"/><line style="" x1="70.951" y1="26.554" x2="26.896" y2="51.986" fill="url(#d)"/><rect x="23.489" y="38.854" transform="matrix(0.8663 -0.4995 0.4995 0.8663 -13.0751 29.6867)" width="50.867" height="0.833"/></g><g><pattern id="c" xlink:href="#a" patternTransform="matrix(-0.2706 0.1562 0.1562 0.2706 -9111.8926 -4571.291)"/><line style="" x1="78.235" y1="31.114" x2="34.18" y2="56.546" fill="url(#c)"/><rect x="30.773" y="43.413" transform="matrix(0.8663 -0.4995 0.4995 0.8663 -14.379 33.9346)" width="50.868" height="0.833"/></g><g><pattern id="b" xlink:href="#a" patternTransform="matrix(-0.2706 0.1562 0.1562 0.2706 -9111.8926 -4571.291)"/><line style="" x1="85.519" y1="35.674" x2="41.464" y2="61.106" fill="url(#b)"/><rect x="38.057" y="47.973" transform="matrix(0.8663 -0.4995 0.4995 0.8663 -15.6828 38.1825)" width="50.867" height="0.833"/></g><text x="0" y="115" fill="#000000" font-size="5px" font-weight="bold" font-family="'Helvetica Neue', Helvetica, Arial-Unicode, Arial, Sans-serif">Created by Mentaltoy</text><text x="0" y="120" fill="#000000" font-size="5px" font-weight="bold" font-family="'Helvetica Neue', Helvetica, Arial-Unicode, Arial, Sans-serif">from the Noun Project</text></svg>