<svg xmlns="http://www.w3.org/2000/svg" xmlns:xlink="http://www.w3.org/1999/xlink" version="1.1" x="0px" y="0px" viewBox="0 0 100 125" enable-background="new 0 0 100 100" xml:space="preserve"><polygon points="71.66,24.805 64.589,31.875 61.054,28.339 68.124,21.269 64.589,17.734 53.982,28.339 50.446,24.804 61.053,14.199   56.103,9.249 37.012,28.339 71.66,62.988 90.752,43.896 "/><path d="M33.477,31.875l-4.95,4.95c-2.722,2.722-2.188,8.502,1.189,12.842c0,0,3.335,4.41,0.352,7.393  c-0.163,0.164-17.332,13.941-17.451,14.061c-4.491,4.49-4.49,11.771,0,16.263c4.491,4.49,11.772,4.491,16.264,0  c0.119-0.119,13.897-17.285,14.061-17.45c2.984-2.982,7.391,0.35,7.391,0.35c4.343,3.378,10.121,3.912,12.844,1.189l4.949-4.949  L33.477,31.875z"/><text x="0" y="115" fill="#000000" font-size="5px" font-weight="bold" font-family="'Helvetica Neue', Helvetica, Arial-Unicode, Arial, Sans-serif">Created by Tomas Knopp</text><text x="0" y="120" fill="#000000" font-size="5px" font-weight="bold" font-family="'Helvetica Neue', Helvetica, Arial-Unicode, Arial, Sans-serif">from the Noun Project</text></svg>