<svg xmlns="http://www.w3.org/2000/svg" xmlns:xlink="http://www.w3.org/1999/xlink" version="1.1" x="0px" y="0px" viewBox="0 0 100 125" style="enable-background:new 0 0 100 100;" xml:space="preserve"><g><path d="M50,86c19.9,0,36-16.1,36-36S69.9,14,50,14S14,30.1,14,50S30.1,86,50,86z M50,20c16.5,0,30,13.5,30,30S66.5,80,50,80   S20,66.5,20,50S33.5,20,50,20z"/><polygon points="47,63 53,63 53,53 63,53 63,47 53,47 53,37 47,37 47,47 37,47 37,53 47,53  "/></g><text x="0" y="115" fill="#000000" font-size="5px" font-weight="bold" font-family="'Helvetica Neue', Helvetica, Arial-Unicode, Arial, Sans-serif">Created by Agni</text><text x="0" y="120" fill="#000000" font-size="5px" font-weight="bold" font-family="'Helvetica Neue', Helvetica, Arial-Unicode, Arial, Sans-serif">from the Noun Project</text></svg>