<svg xmlns="http://www.w3.org/2000/svg" xmlns:xlink="http://www.w3.org/1999/xlink" version="1.1" x="0px" y="0px" viewBox="0 0 100 125" enable-background="new 0 0 100 100" xml:space="preserve"><path fill-rule="evenodd" clip-rule="evenodd" d="M50.5,81.5c-13.807,0-25-4.029-25-9c0-3.802,6.557-7.046,15.814-8.365  c2.542,4.095,4.52,7.019,4.52,7.019S48.167,74.5,50.5,74.5c2.334,0,4.667-3.347,4.667-3.347s1.978-2.924,4.52-7.019  C68.943,65.454,75.5,68.698,75.5,72.5C75.5,77.471,64.307,81.5,50.5,81.5z M54.5,68.5c0,0-2,3-4,3s-4-3-4-3s-11-17-12.998-25.119  C32.864,41.535,32.5,39.562,32.5,37.5c0-9.941,8.059-18,18-18c9.941,0,18,8.059,18,18c0,2.062-0.363,4.035-1.002,5.881  C65.5,51.5,54.5,68.5,54.5,68.5z M50.5,30.5c-3.866,0-7,3.134-7,7s3.134,7,7,7c3.866,0,7-3.134,7-7S54.366,30.5,50.5,30.5z"/><text x="0" y="115" fill="#000000" font-size="5px" font-weight="bold" font-family="'Helvetica Neue', Helvetica, Arial-Unicode, Arial, Sans-serif">Created by Anusha Narvekar</text><text x="0" y="120" fill="#000000" font-size="5px" font-weight="bold" font-family="'Helvetica Neue', Helvetica, Arial-Unicode, Arial, Sans-serif">from the Noun Project</text></svg>