<svg xmlns="http://www.w3.org/2000/svg" xmlns:xlink="http://www.w3.org/1999/xlink" viewBox="0 0 60 75" version="1.1" x="0px" y="0px"><title>8 -Sphare- (Solid)</title><desc>Created with Sketch.</desc><g stroke="none" stroke-width="1" fill="none" fill-rule="evenodd"><g transform="translate(-954.000000, -329.000000)" fill="#000000"><g transform="translate(954.000000, 329.000000)"><path d="M54.251,24.937 C54.029,24.937 53.806,24.863 53.62,24.712 C47.603,19.811 38.811,17 29.5,17 C25.675,17 21.98,17.486 18.514,18.37 C17.532,22.19 17,26.279 17,30.5 C17,38.9 19.071,46.945 22.833,53.154 C23.119,53.626 22.968,54.241 22.496,54.527 C22.334,54.625 22.155,54.672 21.979,54.672 C21.641,54.672 21.311,54.5 21.122,54.19 C17.174,47.674 15,39.26 15,30.5 C15,26.527 15.443,22.655 16.287,19 C12.706,20.138 9.418,21.729 6.604,23.768 C6.155,24.093 5.53,23.992 5.207,23.544 C4.883,23.097 4.982,22.472 5.43,22.148 C8.729,19.758 12.618,17.931 16.872,16.72 C18.048,12.588 19.756,8.787 21.95,5.51 C22.258,5.052 22.88,4.93 23.338,5.236 C23.797,5.543 23.92,6.165 23.612,6.624 C21.736,9.424 20.256,12.65 19.158,16.136 C22.451,15.391 25.928,15 29.5,15 C39.263,15 48.515,17.975 54.884,23.162 C55.312,23.51 55.376,24.14 55.027,24.568 C54.83,24.811 54.542,24.937 54.251,24.937 M30,5.68434189e-14 C13.458,5.68434189e-14 0,13.458 0,30 C0,46.542 13.458,60 30,60 C46.542,60 60,46.542 60,30 C60,13.458 46.542,5.68434189e-14 30,5.68434189e-14"/></g></g></g><text x="0" y="75" fill="#000000" font-size="5px" font-weight="bold" font-family="'Helvetica Neue', Helvetica, Arial-Unicode, Arial, Sans-serif">Created by Ben Davis</text><text x="0" y="80" fill="#000000" font-size="5px" font-weight="bold" font-family="'Helvetica Neue', Helvetica, Arial-Unicode, Arial, Sans-serif">from the Noun Project</text></svg>