<svg xmlns="http://www.w3.org/2000/svg" xmlns:xlink="http://www.w3.org/1999/xlink" version="1.1" x="0px" y="0px" viewBox="0 0 100 125" style="enable-background:new 0 0 100 100;" xml:space="preserve"><g><path d="M93.164,86.328H100v6.836V100h-6.836h-6.836v-6.836h6.836V86.328z M93.164,78.418H100V64.746h-6.836V78.418z    M93.164,56.836H100V43.164h-6.836V56.836z M93.164,35.254H100V21.582h-6.836V35.254z M6.836,6.836h6.836V0H6.836H0v6.836v6.836   h6.836V6.836z M93.164,0h-6.836v6.836h6.836v6.836H100V6.836V0H93.164z M35.254,0H21.582v6.836h13.672V0z M56.836,0H43.164v6.836   h13.672V0z M78.418,0H64.746v6.836h13.672V0z M64.746,100h13.672v-6.836H64.746V100z M6.836,21.582H0v13.672h6.836V21.582z    M6.836,43.164H0v13.672h6.836V43.164z M6.836,64.746H0v13.672h6.836V64.746z M6.836,100h6.836v-6.836H6.836v-6.836H0v6.836V100   H6.836z M43.164,100h13.672v-6.836H43.164V100z M21.582,100h13.672v-6.836H21.582V100z M78.551,21.449H21.45v57.102h57.101V21.449z    M25.356,25.355h49.289v49.289H25.356V25.355z"/></g><text x="0" y="115" fill="#000000" font-size="5px" font-weight="bold" font-family="'Helvetica Neue', Helvetica, Arial-Unicode, Arial, Sans-serif">Created by b farias</text><text x="0" y="120" fill="#000000" font-size="5px" font-weight="bold" font-family="'Helvetica Neue', Helvetica, Arial-Unicode, Arial, Sans-serif">from the Noun Project</text></svg>